<mxfile host="app.diagrams.net" agent="Mozilla/5.0 (Windows NT 10.0; Win64; x64) AppleWebKit/537.36 (KHTML, like Gecko) Chrome/139.0.0.0 Safari/537.36" version="28.2.0">
  <diagram id="C5RBs43oDa-KdzZeNtuy" name="Page-1">
    <mxGraphModel grid="1" page="1" gridSize="10" guides="1" tooltips="1" connect="1" arrows="1" fold="1" pageScale="1" pageWidth="827" pageHeight="1169" math="0" shadow="0">
      <root>
        <mxCell id="WIyWlLk6GJQsqaUBKTNV-0" />
        <mxCell id="WIyWlLk6GJQsqaUBKTNV-1" parent="WIyWlLk6GJQsqaUBKTNV-0" />
        <mxCell id="2h2ivSBIwrJRzTztIFrO-21" style="edgeStyle=orthogonalEdgeStyle;rounded=0;orthogonalLoop=1;jettySize=auto;html=1;exitX=0;exitY=0.5;exitDx=0;exitDy=0;" edge="1" parent="WIyWlLk6GJQsqaUBKTNV-1" source="WIyWlLk6GJQsqaUBKTNV-7" target="2h2ivSBIwrJRzTztIFrO-4">
          <mxGeometry relative="1" as="geometry" />
        </mxCell>
        <mxCell id="2h2ivSBIwrJRzTztIFrO-24" style="edgeStyle=orthogonalEdgeStyle;rounded=0;orthogonalLoop=1;jettySize=auto;html=1;exitX=0.75;exitY=0;exitDx=0;exitDy=0;entryX=0;entryY=1;entryDx=0;entryDy=0;" edge="1" parent="WIyWlLk6GJQsqaUBKTNV-1" source="WIyWlLk6GJQsqaUBKTNV-7" target="2h2ivSBIwrJRzTztIFrO-5">
          <mxGeometry relative="1" as="geometry" />
        </mxCell>
        <mxCell id="2h2ivSBIwrJRzTztIFrO-25" style="edgeStyle=orthogonalEdgeStyle;rounded=0;orthogonalLoop=1;jettySize=auto;html=1;exitX=1;exitY=0.75;exitDx=0;exitDy=0;" edge="1" parent="WIyWlLk6GJQsqaUBKTNV-1" source="WIyWlLk6GJQsqaUBKTNV-7" target="2h2ivSBIwrJRzTztIFrO-9">
          <mxGeometry relative="1" as="geometry">
            <Array as="points">
              <mxPoint x="460" y="250" />
              <mxPoint x="560" y="250" />
            </Array>
          </mxGeometry>
        </mxCell>
        <mxCell id="2h2ivSBIwrJRzTztIFrO-27" style="edgeStyle=orthogonalEdgeStyle;rounded=0;orthogonalLoop=1;jettySize=auto;html=1;exitX=0.25;exitY=1;exitDx=0;exitDy=0;" edge="1" parent="WIyWlLk6GJQsqaUBKTNV-1" source="WIyWlLk6GJQsqaUBKTNV-7" target="2h2ivSBIwrJRzTztIFrO-6">
          <mxGeometry relative="1" as="geometry" />
        </mxCell>
        <mxCell id="WIyWlLk6GJQsqaUBKTNV-7" value="Users" style="rounded=1;whiteSpace=wrap;html=1;fontSize=12;glass=0;strokeWidth=1;shadow=0;" vertex="1" parent="WIyWlLk6GJQsqaUBKTNV-1">
          <mxGeometry x="340" y="190" width="120" height="40" as="geometry" />
        </mxCell>
        <mxCell id="2h2ivSBIwrJRzTztIFrO-2" value="&lt;u&gt;User_Id&lt;/u&gt;" style="ellipse;whiteSpace=wrap;html=1;" vertex="1" parent="WIyWlLk6GJQsqaUBKTNV-1">
          <mxGeometry x="210" y="70" width="120" height="80" as="geometry" />
        </mxCell>
        <mxCell id="2h2ivSBIwrJRzTztIFrO-3" value="Email" style="ellipse;whiteSpace=wrap;html=1;" vertex="1" parent="WIyWlLk6GJQsqaUBKTNV-1">
          <mxGeometry x="210" y="-60" width="120" height="80" as="geometry" />
        </mxCell>
        <mxCell id="2h2ivSBIwrJRzTztIFrO-4" value="Name" style="ellipse;whiteSpace=wrap;html=1;" vertex="1" parent="WIyWlLk6GJQsqaUBKTNV-1">
          <mxGeometry x="100" y="130" width="120" height="80" as="geometry" />
        </mxCell>
        <mxCell id="2h2ivSBIwrJRzTztIFrO-5" value="Provider" style="ellipse;whiteSpace=wrap;html=1;" vertex="1" parent="WIyWlLk6GJQsqaUBKTNV-1">
          <mxGeometry x="470" y="80" width="120" height="80" as="geometry" />
        </mxCell>
        <mxCell id="2h2ivSBIwrJRzTztIFrO-6" value="Created_At" style="ellipse;whiteSpace=wrap;html=1;" vertex="1" parent="WIyWlLk6GJQsqaUBKTNV-1">
          <mxGeometry x="240" y="260" width="120" height="80" as="geometry" />
        </mxCell>
        <mxCell id="2h2ivSBIwrJRzTztIFrO-7" value="Last_Login_At" style="ellipse;whiteSpace=wrap;html=1;" vertex="1" parent="WIyWlLk6GJQsqaUBKTNV-1">
          <mxGeometry x="390" y="290" width="120" height="80" as="geometry" />
        </mxCell>
        <mxCell id="2h2ivSBIwrJRzTztIFrO-8" value="&lt;u&gt;Book_Id&lt;/u&gt;" style="ellipse;whiteSpace=wrap;html=1;" vertex="1" parent="WIyWlLk6GJQsqaUBKTNV-1">
          <mxGeometry x="854" y="50" width="120" height="80" as="geometry" />
        </mxCell>
        <mxCell id="2h2ivSBIwrJRzTztIFrO-9" value="Provider_User_Id" style="ellipse;whiteSpace=wrap;html=1;" vertex="1" parent="WIyWlLk6GJQsqaUBKTNV-1">
          <mxGeometry x="500" y="260" width="120" height="80" as="geometry" />
        </mxCell>
        <mxCell id="2h2ivSBIwrJRzTztIFrO-10" value="Roles" style="rounded=1;whiteSpace=wrap;html=1;fontSize=12;glass=0;strokeWidth=1;shadow=0;" vertex="1" parent="WIyWlLk6GJQsqaUBKTNV-1">
          <mxGeometry x="340" y="-210" width="120" height="40" as="geometry" />
        </mxCell>
        <mxCell id="2h2ivSBIwrJRzTztIFrO-11" value="&lt;u&gt;Role_Id&lt;/u&gt;" style="ellipse;whiteSpace=wrap;html=1;" vertex="1" parent="WIyWlLk6GJQsqaUBKTNV-1">
          <mxGeometry x="230" y="-310" width="120" height="80" as="geometry" />
        </mxCell>
        <mxCell id="2h2ivSBIwrJRzTztIFrO-12" value="Name" style="ellipse;whiteSpace=wrap;html=1;" vertex="1" parent="WIyWlLk6GJQsqaUBKTNV-1">
          <mxGeometry x="380" y="-310" width="120" height="80" as="geometry" />
        </mxCell>
        <mxCell id="TxhFpd6aJ6l7j7Jbakrz-2" style="edgeStyle=orthogonalEdgeStyle;rounded=0;orthogonalLoop=1;jettySize=auto;html=1;exitX=0.25;exitY=1;exitDx=0;exitDy=0;" edge="1" parent="WIyWlLk6GJQsqaUBKTNV-1" source="2h2ivSBIwrJRzTztIFrO-13" target="2h2ivSBIwrJRzTztIFrO-20">
          <mxGeometry relative="1" as="geometry" />
        </mxCell>
        <mxCell id="TxhFpd6aJ6l7j7Jbakrz-3" style="edgeStyle=orthogonalEdgeStyle;rounded=0;orthogonalLoop=1;jettySize=auto;html=1;exitX=0.5;exitY=1;exitDx=0;exitDy=0;" edge="1" parent="WIyWlLk6GJQsqaUBKTNV-1" source="2h2ivSBIwrJRzTztIFrO-13" target="2h2ivSBIwrJRzTztIFrO-19">
          <mxGeometry relative="1" as="geometry" />
        </mxCell>
        <mxCell id="TxhFpd6aJ6l7j7Jbakrz-13" style="edgeStyle=orthogonalEdgeStyle;rounded=0;orthogonalLoop=1;jettySize=auto;html=1;exitX=1;exitY=0.5;exitDx=0;exitDy=0;" edge="1" parent="WIyWlLk6GJQsqaUBKTNV-1" source="2h2ivSBIwrJRzTztIFrO-13" target="TxhFpd6aJ6l7j7Jbakrz-10">
          <mxGeometry relative="1" as="geometry" />
        </mxCell>
        <mxCell id="TxhFpd6aJ6l7j7Jbakrz-50" style="edgeStyle=orthogonalEdgeStyle;rounded=0;orthogonalLoop=1;jettySize=auto;html=1;exitX=0.25;exitY=1;exitDx=0;exitDy=0;entryX=0;entryY=0;entryDx=0;entryDy=0;" edge="1" parent="WIyWlLk6GJQsqaUBKTNV-1" source="2h2ivSBIwrJRzTztIFrO-13" target="2h2ivSBIwrJRzTztIFrO-16">
          <mxGeometry relative="1" as="geometry" />
        </mxCell>
        <mxCell id="2h2ivSBIwrJRzTztIFrO-13" value="Books" style="rounded=1;whiteSpace=wrap;html=1;fontSize=12;glass=0;strokeWidth=1;shadow=0;" vertex="1" parent="WIyWlLk6GJQsqaUBKTNV-1">
          <mxGeometry x="954" y="190" width="120" height="40" as="geometry" />
        </mxCell>
        <mxCell id="2h2ivSBIwrJRzTztIFrO-14" value="Published_Year" style="ellipse;whiteSpace=wrap;html=1;" vertex="1" parent="WIyWlLk6GJQsqaUBKTNV-1">
          <mxGeometry x="774" y="100" width="120" height="80" as="geometry" />
        </mxCell>
        <mxCell id="2h2ivSBIwrJRzTztIFrO-15" value="Title" style="ellipse;whiteSpace=wrap;html=1;" vertex="1" parent="WIyWlLk6GJQsqaUBKTNV-1">
          <mxGeometry x="834" y="-60" width="120" height="80" as="geometry" />
        </mxCell>
        <mxCell id="2h2ivSBIwrJRzTztIFrO-16" value="ISBN" style="ellipse;whiteSpace=wrap;html=1;" vertex="1" parent="WIyWlLk6GJQsqaUBKTNV-1">
          <mxGeometry x="1024" y="380" width="120" height="80" as="geometry" />
        </mxCell>
        <mxCell id="2h2ivSBIwrJRzTztIFrO-17" value="Cover_Url" style="ellipse;whiteSpace=wrap;html=1;" vertex="1" parent="WIyWlLk6GJQsqaUBKTNV-1">
          <mxGeometry x="1134" y="240" width="120" height="80" as="geometry" />
        </mxCell>
        <mxCell id="2h2ivSBIwrJRzTztIFrO-18" value="Description" style="ellipse;whiteSpace=wrap;html=1;" vertex="1" parent="WIyWlLk6GJQsqaUBKTNV-1">
          <mxGeometry x="1044" y="-60" width="120" height="80" as="geometry" />
        </mxCell>
        <mxCell id="2h2ivSBIwrJRzTztIFrO-19" value="Created_by_User_Id" style="ellipse;whiteSpace=wrap;html=1;" vertex="1" parent="WIyWlLk6GJQsqaUBKTNV-1">
          <mxGeometry x="1044" y="280" width="120" height="80" as="geometry" />
        </mxCell>
        <mxCell id="2h2ivSBIwrJRzTztIFrO-20" value="Created_at" style="ellipse;whiteSpace=wrap;html=1;" vertex="1" parent="WIyWlLk6GJQsqaUBKTNV-1">
          <mxGeometry x="904" y="300" width="120" height="80" as="geometry" />
        </mxCell>
        <mxCell id="2h2ivSBIwrJRzTztIFrO-22" style="edgeStyle=orthogonalEdgeStyle;rounded=0;orthogonalLoop=1;jettySize=auto;html=1;exitX=0;exitY=0;exitDx=0;exitDy=0;entryX=0.717;entryY=0.913;entryDx=0;entryDy=0;entryPerimeter=0;" edge="1" parent="WIyWlLk6GJQsqaUBKTNV-1" source="WIyWlLk6GJQsqaUBKTNV-7" target="2h2ivSBIwrJRzTztIFrO-2">
          <mxGeometry relative="1" as="geometry" />
        </mxCell>
        <mxCell id="2h2ivSBIwrJRzTztIFrO-23" style="edgeStyle=orthogonalEdgeStyle;rounded=0;orthogonalLoop=1;jettySize=auto;html=1;exitX=0.5;exitY=0;exitDx=0;exitDy=0;" edge="1" parent="WIyWlLk6GJQsqaUBKTNV-1">
          <mxGeometry relative="1" as="geometry">
            <mxPoint x="360" y="190" as="sourcePoint" />
            <mxPoint x="280" y="20" as="targetPoint" />
            <Array as="points">
              <mxPoint x="360" y="50" />
              <mxPoint x="280" y="50" />
              <mxPoint x="280" y="20" />
            </Array>
          </mxGeometry>
        </mxCell>
        <mxCell id="2h2ivSBIwrJRzTztIFrO-26" style="edgeStyle=orthogonalEdgeStyle;rounded=0;orthogonalLoop=1;jettySize=auto;html=1;exitX=0.75;exitY=1;exitDx=0;exitDy=0;entryX=0.442;entryY=-0.012;entryDx=0;entryDy=0;entryPerimeter=0;" edge="1" parent="WIyWlLk6GJQsqaUBKTNV-1" source="WIyWlLk6GJQsqaUBKTNV-7" target="2h2ivSBIwrJRzTztIFrO-7">
          <mxGeometry relative="1" as="geometry" />
        </mxCell>
        <mxCell id="TxhFpd6aJ6l7j7Jbakrz-0" value="Updated_At" style="ellipse;whiteSpace=wrap;html=1;" vertex="1" parent="WIyWlLk6GJQsqaUBKTNV-1">
          <mxGeometry x="784" y="240" width="120" height="80" as="geometry" />
        </mxCell>
        <mxCell id="TxhFpd6aJ6l7j7Jbakrz-1" style="edgeStyle=orthogonalEdgeStyle;rounded=0;orthogonalLoop=1;jettySize=auto;html=1;exitX=0;exitY=1;exitDx=0;exitDy=0;entryX=1;entryY=0.388;entryDx=0;entryDy=0;entryPerimeter=0;" edge="1" parent="WIyWlLk6GJQsqaUBKTNV-1" source="2h2ivSBIwrJRzTztIFrO-13" target="TxhFpd6aJ6l7j7Jbakrz-0">
          <mxGeometry relative="1" as="geometry" />
        </mxCell>
        <mxCell id="TxhFpd6aJ6l7j7Jbakrz-4" style="edgeStyle=orthogonalEdgeStyle;rounded=0;orthogonalLoop=1;jettySize=auto;html=1;exitX=1;exitY=0.75;exitDx=0;exitDy=0;entryX=0.133;entryY=0.238;entryDx=0;entryDy=0;entryPerimeter=0;" edge="1" parent="WIyWlLk6GJQsqaUBKTNV-1" source="2h2ivSBIwrJRzTztIFrO-13" target="2h2ivSBIwrJRzTztIFrO-17">
          <mxGeometry relative="1" as="geometry" />
        </mxCell>
        <mxCell id="TxhFpd6aJ6l7j7Jbakrz-6" style="edgeStyle=orthogonalEdgeStyle;rounded=0;orthogonalLoop=1;jettySize=auto;html=1;exitX=0.75;exitY=0;exitDx=0;exitDy=0;entryX=0.167;entryY=0.938;entryDx=0;entryDy=0;entryPerimeter=0;" edge="1" parent="WIyWlLk6GJQsqaUBKTNV-1" source="2h2ivSBIwrJRzTztIFrO-13" target="2h2ivSBIwrJRzTztIFrO-18">
          <mxGeometry relative="1" as="geometry" />
        </mxCell>
        <mxCell id="TxhFpd6aJ6l7j7Jbakrz-7" style="edgeStyle=orthogonalEdgeStyle;rounded=0;orthogonalLoop=1;jettySize=auto;html=1;exitX=0.5;exitY=0;exitDx=0;exitDy=0;entryX=0.583;entryY=1.013;entryDx=0;entryDy=0;entryPerimeter=0;" edge="1" parent="WIyWlLk6GJQsqaUBKTNV-1" source="2h2ivSBIwrJRzTztIFrO-13" target="2h2ivSBIwrJRzTztIFrO-15">
          <mxGeometry relative="1" as="geometry">
            <Array as="points">
              <mxPoint x="1014" y="40" />
              <mxPoint x="900" y="40" />
            </Array>
          </mxGeometry>
        </mxCell>
        <mxCell id="TxhFpd6aJ6l7j7Jbakrz-8" style="edgeStyle=orthogonalEdgeStyle;rounded=0;orthogonalLoop=1;jettySize=auto;html=1;exitX=0.25;exitY=0;exitDx=0;exitDy=0;entryX=0.775;entryY=0.975;entryDx=0;entryDy=0;entryPerimeter=0;" edge="1" parent="WIyWlLk6GJQsqaUBKTNV-1" source="2h2ivSBIwrJRzTztIFrO-13" target="2h2ivSBIwrJRzTztIFrO-8">
          <mxGeometry relative="1" as="geometry" />
        </mxCell>
        <mxCell id="TxhFpd6aJ6l7j7Jbakrz-9" style="edgeStyle=orthogonalEdgeStyle;rounded=0;orthogonalLoop=1;jettySize=auto;html=1;exitX=0;exitY=0.25;exitDx=0;exitDy=0;entryX=0.942;entryY=0.825;entryDx=0;entryDy=0;entryPerimeter=0;" edge="1" parent="WIyWlLk6GJQsqaUBKTNV-1" source="2h2ivSBIwrJRzTztIFrO-13" target="2h2ivSBIwrJRzTztIFrO-14">
          <mxGeometry relative="1" as="geometry" />
        </mxCell>
        <mxCell id="TxhFpd6aJ6l7j7Jbakrz-10" value="IsDeleted" style="ellipse;whiteSpace=wrap;html=1;" vertex="1" parent="WIyWlLk6GJQsqaUBKTNV-1">
          <mxGeometry x="1194" y="160" width="120" height="80" as="geometry" />
        </mxCell>
        <mxCell id="TxhFpd6aJ6l7j7Jbakrz-11" value="IsDeleted" style="ellipse;whiteSpace=wrap;html=1;" vertex="1" parent="WIyWlLk6GJQsqaUBKTNV-1">
          <mxGeometry x="90" y="250" width="120" height="80" as="geometry" />
        </mxCell>
        <mxCell id="TxhFpd6aJ6l7j7Jbakrz-12" style="edgeStyle=orthogonalEdgeStyle;rounded=0;orthogonalLoop=1;jettySize=auto;html=1;exitX=0;exitY=0.75;exitDx=0;exitDy=0;entryX=1.025;entryY=0.4;entryDx=0;entryDy=0;entryPerimeter=0;" edge="1" parent="WIyWlLk6GJQsqaUBKTNV-1" source="WIyWlLk6GJQsqaUBKTNV-7" target="TxhFpd6aJ6l7j7Jbakrz-11">
          <mxGeometry relative="1" as="geometry" />
        </mxCell>
        <mxCell id="TxhFpd6aJ6l7j7Jbakrz-18" style="edgeStyle=orthogonalEdgeStyle;rounded=0;orthogonalLoop=1;jettySize=auto;html=1;exitX=0;exitY=0;exitDx=0;exitDy=0;entryX=1;entryY=1;entryDx=0;entryDy=0;" edge="1" parent="WIyWlLk6GJQsqaUBKTNV-1" source="TxhFpd6aJ6l7j7Jbakrz-14" target="TxhFpd6aJ6l7j7Jbakrz-16">
          <mxGeometry relative="1" as="geometry" />
        </mxCell>
        <mxCell id="TxhFpd6aJ6l7j7Jbakrz-20" style="edgeStyle=orthogonalEdgeStyle;rounded=0;orthogonalLoop=1;jettySize=auto;html=1;exitX=0.5;exitY=1;exitDx=0;exitDy=0;entryX=0.5;entryY=0;entryDx=0;entryDy=0;" edge="1" parent="WIyWlLk6GJQsqaUBKTNV-1" source="TxhFpd6aJ6l7j7Jbakrz-14" target="TxhFpd6aJ6l7j7Jbakrz-17">
          <mxGeometry relative="1" as="geometry" />
        </mxCell>
        <mxCell id="TxhFpd6aJ6l7j7Jbakrz-14" value="Author" style="rounded=1;whiteSpace=wrap;html=1;fontSize=12;glass=0;strokeWidth=1;shadow=0;" vertex="1" parent="WIyWlLk6GJQsqaUBKTNV-1">
          <mxGeometry x="1360" y="-370" width="120" height="40" as="geometry" />
        </mxCell>
        <mxCell id="TxhFpd6aJ6l7j7Jbakrz-15" value="&lt;u&gt;Autor_Id&lt;/u&gt;" style="ellipse;whiteSpace=wrap;html=1;" vertex="1" parent="WIyWlLk6GJQsqaUBKTNV-1">
          <mxGeometry x="1430" y="-490" width="120" height="80" as="geometry" />
        </mxCell>
        <mxCell id="TxhFpd6aJ6l7j7Jbakrz-16" value="Full_Name" style="ellipse;whiteSpace=wrap;html=1;" vertex="1" parent="WIyWlLk6GJQsqaUBKTNV-1">
          <mxGeometry x="1220" y="-450" width="120" height="80" as="geometry" />
        </mxCell>
        <mxCell id="TxhFpd6aJ6l7j7Jbakrz-17" value="Bio" style="ellipse;whiteSpace=wrap;html=1;" vertex="1" parent="WIyWlLk6GJQsqaUBKTNV-1">
          <mxGeometry x="1484" y="-310" width="120" height="80" as="geometry" />
        </mxCell>
        <mxCell id="TxhFpd6aJ6l7j7Jbakrz-21" style="edgeStyle=orthogonalEdgeStyle;rounded=0;orthogonalLoop=1;jettySize=auto;html=1;exitX=0;exitY=0;exitDx=0;exitDy=0;entryX=0.808;entryY=0.938;entryDx=0;entryDy=0;entryPerimeter=0;" edge="1" parent="WIyWlLk6GJQsqaUBKTNV-1" source="2h2ivSBIwrJRzTztIFrO-10" target="2h2ivSBIwrJRzTztIFrO-11">
          <mxGeometry relative="1" as="geometry" />
        </mxCell>
        <mxCell id="TxhFpd6aJ6l7j7Jbakrz-22" style="edgeStyle=orthogonalEdgeStyle;rounded=0;orthogonalLoop=1;jettySize=auto;html=1;exitX=0.75;exitY=0;exitDx=0;exitDy=0;entryX=0.425;entryY=0.988;entryDx=0;entryDy=0;entryPerimeter=0;" edge="1" parent="WIyWlLk6GJQsqaUBKTNV-1" source="2h2ivSBIwrJRzTztIFrO-10" target="2h2ivSBIwrJRzTztIFrO-12">
          <mxGeometry relative="1" as="geometry" />
        </mxCell>
        <mxCell id="TxhFpd6aJ6l7j7Jbakrz-23" style="edgeStyle=orthogonalEdgeStyle;rounded=0;orthogonalLoop=1;jettySize=auto;html=1;exitX=0;exitY=0;exitDx=0;exitDy=0;entryX=1;entryY=1;entryDx=0;entryDy=0;" edge="1" parent="WIyWlLk6GJQsqaUBKTNV-1" source="TxhFpd6aJ6l7j7Jbakrz-25" target="TxhFpd6aJ6l7j7Jbakrz-27">
          <mxGeometry relative="1" as="geometry" />
        </mxCell>
        <mxCell id="TxhFpd6aJ6l7j7Jbakrz-42" style="edgeStyle=orthogonalEdgeStyle;rounded=0;orthogonalLoop=1;jettySize=auto;html=1;exitX=0.75;exitY=0;exitDx=0;exitDy=0;entryX=0.5;entryY=1;entryDx=0;entryDy=0;" edge="1" parent="WIyWlLk6GJQsqaUBKTNV-1" source="TxhFpd6aJ6l7j7Jbakrz-25" target="TxhFpd6aJ6l7j7Jbakrz-28">
          <mxGeometry relative="1" as="geometry" />
        </mxCell>
        <mxCell id="TxhFpd6aJ6l7j7Jbakrz-25" value="Category" style="rounded=1;whiteSpace=wrap;html=1;fontSize=12;glass=0;strokeWidth=1;shadow=0;" vertex="1" parent="WIyWlLk6GJQsqaUBKTNV-1">
          <mxGeometry x="870" y="-510" width="120" height="40" as="geometry" />
        </mxCell>
        <mxCell id="TxhFpd6aJ6l7j7Jbakrz-26" value="Name" style="ellipse;whiteSpace=wrap;html=1;" vertex="1" parent="WIyWlLk6GJQsqaUBKTNV-1">
          <mxGeometry x="700" y="-450" width="120" height="80" as="geometry" />
        </mxCell>
        <mxCell id="TxhFpd6aJ6l7j7Jbakrz-27" value="&lt;u&gt;Category_Id&lt;/u&gt;" style="ellipse;whiteSpace=wrap;html=1;" vertex="1" parent="WIyWlLk6GJQsqaUBKTNV-1">
          <mxGeometry x="730" y="-590" width="120" height="80" as="geometry" />
        </mxCell>
        <mxCell id="TxhFpd6aJ6l7j7Jbakrz-28" value="Description" style="ellipse;whiteSpace=wrap;html=1;" vertex="1" parent="WIyWlLk6GJQsqaUBKTNV-1">
          <mxGeometry x="890" y="-640" width="120" height="80" as="geometry" />
        </mxCell>
        <mxCell id="TxhFpd6aJ6l7j7Jbakrz-29" style="edgeStyle=orthogonalEdgeStyle;rounded=0;orthogonalLoop=1;jettySize=auto;html=1;exitX=0;exitY=0.5;exitDx=0;exitDy=0;entryX=0.942;entryY=0.288;entryDx=0;entryDy=0;entryPerimeter=0;" edge="1" parent="WIyWlLk6GJQsqaUBKTNV-1" source="TxhFpd6aJ6l7j7Jbakrz-25" target="TxhFpd6aJ6l7j7Jbakrz-26">
          <mxGeometry relative="1" as="geometry" />
        </mxCell>
        <mxCell id="TxhFpd6aJ6l7j7Jbakrz-32" style="edgeStyle=orthogonalEdgeStyle;rounded=0;orthogonalLoop=1;jettySize=auto;html=1;exitX=0;exitY=0.5;exitDx=0;exitDy=0;entryX=1;entryY=0.5;entryDx=0;entryDy=0;" edge="1" parent="WIyWlLk6GJQsqaUBKTNV-1" source="TxhFpd6aJ6l7j7Jbakrz-30" target="WIyWlLk6GJQsqaUBKTNV-7">
          <mxGeometry relative="1" as="geometry" />
        </mxCell>
        <mxCell id="TxhFpd6aJ6l7j7Jbakrz-33" style="edgeStyle=orthogonalEdgeStyle;rounded=0;orthogonalLoop=1;jettySize=auto;html=1;exitX=1;exitY=0.5;exitDx=0;exitDy=0;" edge="1" parent="WIyWlLk6GJQsqaUBKTNV-1" source="TxhFpd6aJ6l7j7Jbakrz-30">
          <mxGeometry relative="1" as="geometry">
            <mxPoint x="950" y="220" as="targetPoint" />
          </mxGeometry>
        </mxCell>
        <mxCell id="TxhFpd6aJ6l7j7Jbakrz-30" value="Has" style="rhombus;whiteSpace=wrap;html=1;" vertex="1" parent="WIyWlLk6GJQsqaUBKTNV-1">
          <mxGeometry x="620" y="160" width="80" height="80" as="geometry" />
        </mxCell>
        <mxCell id="TxhFpd6aJ6l7j7Jbakrz-34" value="1" style="text;html=1;align=center;verticalAlign=middle;whiteSpace=wrap;rounded=0;" vertex="1" parent="WIyWlLk6GJQsqaUBKTNV-1">
          <mxGeometry x="560" y="170" width="60" height="30" as="geometry" />
        </mxCell>
        <mxCell id="TxhFpd6aJ6l7j7Jbakrz-35" value="M" style="text;html=1;align=center;verticalAlign=middle;whiteSpace=wrap;rounded=0;" vertex="1" parent="WIyWlLk6GJQsqaUBKTNV-1">
          <mxGeometry x="724" y="170" width="60" height="30" as="geometry" />
        </mxCell>
        <mxCell id="TxhFpd6aJ6l7j7Jbakrz-38" style="edgeStyle=orthogonalEdgeStyle;rounded=0;orthogonalLoop=1;jettySize=auto;html=1;exitX=0.5;exitY=1;exitDx=0;exitDy=0;" edge="1" parent="WIyWlLk6GJQsqaUBKTNV-1" source="TxhFpd6aJ6l7j7Jbakrz-37" target="WIyWlLk6GJQsqaUBKTNV-7">
          <mxGeometry relative="1" as="geometry" />
        </mxCell>
        <mxCell id="TxhFpd6aJ6l7j7Jbakrz-39" style="edgeStyle=orthogonalEdgeStyle;rounded=0;orthogonalLoop=1;jettySize=auto;html=1;exitX=0.5;exitY=0;exitDx=0;exitDy=0;entryX=0.5;entryY=1;entryDx=0;entryDy=0;" edge="1" parent="WIyWlLk6GJQsqaUBKTNV-1" source="TxhFpd6aJ6l7j7Jbakrz-37" target="2h2ivSBIwrJRzTztIFrO-10">
          <mxGeometry relative="1" as="geometry" />
        </mxCell>
        <mxCell id="TxhFpd6aJ6l7j7Jbakrz-37" value="Has" style="rhombus;whiteSpace=wrap;html=1;" vertex="1" parent="WIyWlLk6GJQsqaUBKTNV-1">
          <mxGeometry x="360" y="-30" width="80" height="80" as="geometry" />
        </mxCell>
        <mxCell id="TxhFpd6aJ6l7j7Jbakrz-40" value="1" style="text;html=1;align=center;verticalAlign=middle;whiteSpace=wrap;rounded=0;" vertex="1" parent="WIyWlLk6GJQsqaUBKTNV-1">
          <mxGeometry x="390" y="-90" width="60" height="30" as="geometry" />
        </mxCell>
        <mxCell id="TxhFpd6aJ6l7j7Jbakrz-41" value="M" style="text;html=1;align=center;verticalAlign=middle;whiteSpace=wrap;rounded=0;" vertex="1" parent="WIyWlLk6GJQsqaUBKTNV-1">
          <mxGeometry x="384" y="60" width="60" height="30" as="geometry" />
        </mxCell>
        <mxCell id="TxhFpd6aJ6l7j7Jbakrz-44" style="edgeStyle=orthogonalEdgeStyle;rounded=0;orthogonalLoop=1;jettySize=auto;html=1;exitX=0.75;exitY=0;exitDx=0;exitDy=0;entryX=0.319;entryY=1.037;entryDx=0;entryDy=0;entryPerimeter=0;" edge="1" parent="WIyWlLk6GJQsqaUBKTNV-1" source="TxhFpd6aJ6l7j7Jbakrz-14" target="TxhFpd6aJ6l7j7Jbakrz-15">
          <mxGeometry relative="1" as="geometry" />
        </mxCell>
        <mxCell id="TxhFpd6aJ6l7j7Jbakrz-48" style="edgeStyle=orthogonalEdgeStyle;rounded=0;orthogonalLoop=1;jettySize=auto;html=1;exitX=0.25;exitY=0;exitDx=0;exitDy=0;entryX=1;entryY=1;entryDx=0;entryDy=0;" edge="1" parent="WIyWlLk6GJQsqaUBKTNV-1" source="TxhFpd6aJ6l7j7Jbakrz-45" target="TxhFpd6aJ6l7j7Jbakrz-46">
          <mxGeometry relative="1" as="geometry" />
        </mxCell>
        <mxCell id="TxhFpd6aJ6l7j7Jbakrz-49" style="edgeStyle=orthogonalEdgeStyle;rounded=0;orthogonalLoop=1;jettySize=auto;html=1;exitX=1;exitY=1;exitDx=0;exitDy=0;entryX=0;entryY=0;entryDx=0;entryDy=0;" edge="1" parent="WIyWlLk6GJQsqaUBKTNV-1" source="TxhFpd6aJ6l7j7Jbakrz-45" target="TxhFpd6aJ6l7j7Jbakrz-47">
          <mxGeometry relative="1" as="geometry" />
        </mxCell>
        <mxCell id="TxhFpd6aJ6l7j7Jbakrz-45" value="Book_Author" style="rounded=1;whiteSpace=wrap;html=1;fontSize=12;glass=0;strokeWidth=1;shadow=0;" vertex="1" parent="WIyWlLk6GJQsqaUBKTNV-1">
          <mxGeometry x="1270" y="-40" width="120" height="40" as="geometry" />
        </mxCell>
        <mxCell id="TxhFpd6aJ6l7j7Jbakrz-46" value="Book_Id" style="ellipse;whiteSpace=wrap;html=1;" vertex="1" parent="WIyWlLk6GJQsqaUBKTNV-1">
          <mxGeometry x="1150" y="-150" width="120" height="80" as="geometry" />
        </mxCell>
        <mxCell id="TxhFpd6aJ6l7j7Jbakrz-47" value="&lt;u&gt;Autor_Id&lt;/u&gt;" style="ellipse;whiteSpace=wrap;html=1;" vertex="1" parent="WIyWlLk6GJQsqaUBKTNV-1">
          <mxGeometry x="1400" y="20" width="120" height="80" as="geometry" />
        </mxCell>
        <mxCell id="TxhFpd6aJ6l7j7Jbakrz-52" style="edgeStyle=orthogonalEdgeStyle;rounded=0;orthogonalLoop=1;jettySize=auto;html=1;exitX=0;exitY=0.5;exitDx=0;exitDy=0;entryX=1;entryY=0;entryDx=0;entryDy=0;" edge="1" parent="WIyWlLk6GJQsqaUBKTNV-1" source="TxhFpd6aJ6l7j7Jbakrz-51" target="2h2ivSBIwrJRzTztIFrO-13">
          <mxGeometry relative="1" as="geometry" />
        </mxCell>
        <mxCell id="TxhFpd6aJ6l7j7Jbakrz-51" value="Has" style="rhombus;whiteSpace=wrap;html=1;" vertex="1" parent="WIyWlLk6GJQsqaUBKTNV-1">
          <mxGeometry x="1140" y="60" width="80" height="80" as="geometry" />
        </mxCell>
        <mxCell id="TxhFpd6aJ6l7j7Jbakrz-53" style="edgeStyle=orthogonalEdgeStyle;rounded=0;orthogonalLoop=1;jettySize=auto;html=1;exitX=1;exitY=0.5;exitDx=0;exitDy=0;entryX=0.428;entryY=1.015;entryDx=0;entryDy=0;entryPerimeter=0;" edge="1" parent="WIyWlLk6GJQsqaUBKTNV-1" source="TxhFpd6aJ6l7j7Jbakrz-51" target="TxhFpd6aJ6l7j7Jbakrz-45">
          <mxGeometry relative="1" as="geometry" />
        </mxCell>
        <mxCell id="TxhFpd6aJ6l7j7Jbakrz-54" value="1" style="text;html=1;align=center;verticalAlign=middle;whiteSpace=wrap;rounded=0;" vertex="1" parent="WIyWlLk6GJQsqaUBKTNV-1">
          <mxGeometry x="1084" y="70" width="60" height="30" as="geometry" />
        </mxCell>
        <mxCell id="TxhFpd6aJ6l7j7Jbakrz-55" value="M" style="text;html=1;align=center;verticalAlign=middle;whiteSpace=wrap;rounded=0;" vertex="1" parent="WIyWlLk6GJQsqaUBKTNV-1">
          <mxGeometry x="1220" y="70" width="60" height="30" as="geometry" />
        </mxCell>
        <mxCell id="TxhFpd6aJ6l7j7Jbakrz-57" style="edgeStyle=orthogonalEdgeStyle;rounded=0;orthogonalLoop=1;jettySize=auto;html=1;exitX=0.5;exitY=0;exitDx=0;exitDy=0;entryX=0.25;entryY=1;entryDx=0;entryDy=0;" edge="1" parent="WIyWlLk6GJQsqaUBKTNV-1" source="TxhFpd6aJ6l7j7Jbakrz-56" target="TxhFpd6aJ6l7j7Jbakrz-14">
          <mxGeometry relative="1" as="geometry" />
        </mxCell>
        <mxCell id="TxhFpd6aJ6l7j7Jbakrz-58" style="edgeStyle=orthogonalEdgeStyle;rounded=0;orthogonalLoop=1;jettySize=auto;html=1;exitX=0.5;exitY=1;exitDx=0;exitDy=0;entryX=0.5;entryY=0;entryDx=0;entryDy=0;" edge="1" parent="WIyWlLk6GJQsqaUBKTNV-1" source="TxhFpd6aJ6l7j7Jbakrz-56" target="TxhFpd6aJ6l7j7Jbakrz-45">
          <mxGeometry relative="1" as="geometry" />
        </mxCell>
        <mxCell id="TxhFpd6aJ6l7j7Jbakrz-56" value="Has" style="rhombus;whiteSpace=wrap;html=1;" vertex="1" parent="WIyWlLk6GJQsqaUBKTNV-1">
          <mxGeometry x="1340" y="-210" width="80" height="80" as="geometry" />
        </mxCell>
        <mxCell id="TxhFpd6aJ6l7j7Jbakrz-59" value="M" style="text;html=1;align=center;verticalAlign=middle;whiteSpace=wrap;rounded=0;" vertex="1" parent="WIyWlLk6GJQsqaUBKTNV-1">
          <mxGeometry x="1370" y="-120" width="60" height="30" as="geometry" />
        </mxCell>
        <mxCell id="TxhFpd6aJ6l7j7Jbakrz-60" value="1" style="text;html=1;align=center;verticalAlign=middle;whiteSpace=wrap;rounded=0;" vertex="1" parent="WIyWlLk6GJQsqaUBKTNV-1">
          <mxGeometry x="1170" y="80" width="60" height="30" as="geometry" />
        </mxCell>
        <mxCell id="TxhFpd6aJ6l7j7Jbakrz-62" value="1" style="text;html=1;align=center;verticalAlign=middle;whiteSpace=wrap;rounded=0;" vertex="1" parent="WIyWlLk6GJQsqaUBKTNV-1">
          <mxGeometry x="1370" y="-250" width="60" height="30" as="geometry" />
        </mxCell>
        <mxCell id="TxhFpd6aJ6l7j7Jbakrz-74" style="edgeStyle=orthogonalEdgeStyle;rounded=0;orthogonalLoop=1;jettySize=auto;html=1;exitX=0;exitY=0.25;exitDx=0;exitDy=0;entryX=1;entryY=0.5;entryDx=0;entryDy=0;" edge="1" parent="WIyWlLk6GJQsqaUBKTNV-1" source="TxhFpd6aJ6l7j7Jbakrz-63" target="TxhFpd6aJ6l7j7Jbakrz-71">
          <mxGeometry relative="1" as="geometry" />
        </mxCell>
        <mxCell id="TxhFpd6aJ6l7j7Jbakrz-63" value="Book_Category" style="rounded=1;whiteSpace=wrap;html=1;fontSize=12;glass=0;strokeWidth=1;shadow=0;" vertex="1" parent="WIyWlLk6GJQsqaUBKTNV-1">
          <mxGeometry x="904" y="-230" width="120" height="40" as="geometry" />
        </mxCell>
        <mxCell id="TxhFpd6aJ6l7j7Jbakrz-64" value="Has" style="rhombus;whiteSpace=wrap;html=1;" vertex="1" parent="WIyWlLk6GJQsqaUBKTNV-1">
          <mxGeometry x="944" y="-130" width="80" height="80" as="geometry" />
        </mxCell>
        <mxCell id="TxhFpd6aJ6l7j7Jbakrz-65" value="Has" style="rhombus;whiteSpace=wrap;html=1;" vertex="1" parent="WIyWlLk6GJQsqaUBKTNV-1">
          <mxGeometry x="944" y="-380" width="80" height="80" as="geometry" />
        </mxCell>
        <mxCell id="TxhFpd6aJ6l7j7Jbakrz-66" style="edgeStyle=orthogonalEdgeStyle;rounded=0;orthogonalLoop=1;jettySize=auto;html=1;exitX=0.5;exitY=1;exitDx=0;exitDy=0;entryX=0.633;entryY=0;entryDx=0;entryDy=0;entryPerimeter=0;" edge="1" parent="WIyWlLk6GJQsqaUBKTNV-1" source="TxhFpd6aJ6l7j7Jbakrz-64" target="2h2ivSBIwrJRzTztIFrO-13">
          <mxGeometry relative="1" as="geometry" />
        </mxCell>
        <mxCell id="TxhFpd6aJ6l7j7Jbakrz-67" style="edgeStyle=orthogonalEdgeStyle;rounded=0;orthogonalLoop=1;jettySize=auto;html=1;exitX=0.5;exitY=0;exitDx=0;exitDy=0;entryX=0.671;entryY=1;entryDx=0;entryDy=0;entryPerimeter=0;" edge="1" parent="WIyWlLk6GJQsqaUBKTNV-1" source="TxhFpd6aJ6l7j7Jbakrz-64" target="TxhFpd6aJ6l7j7Jbakrz-63">
          <mxGeometry relative="1" as="geometry" />
        </mxCell>
        <mxCell id="TxhFpd6aJ6l7j7Jbakrz-68" style="edgeStyle=orthogonalEdgeStyle;rounded=0;orthogonalLoop=1;jettySize=auto;html=1;exitX=0.5;exitY=1;exitDx=0;exitDy=0;entryX=0.671;entryY=0.073;entryDx=0;entryDy=0;entryPerimeter=0;" edge="1" parent="WIyWlLk6GJQsqaUBKTNV-1" source="TxhFpd6aJ6l7j7Jbakrz-65" target="TxhFpd6aJ6l7j7Jbakrz-63">
          <mxGeometry relative="1" as="geometry" />
        </mxCell>
        <mxCell id="TxhFpd6aJ6l7j7Jbakrz-69" style="edgeStyle=orthogonalEdgeStyle;rounded=0;orthogonalLoop=1;jettySize=auto;html=1;exitX=0.5;exitY=0;exitDx=0;exitDy=0;entryX=0.403;entryY=1.073;entryDx=0;entryDy=0;entryPerimeter=0;" edge="1" parent="WIyWlLk6GJQsqaUBKTNV-1" source="TxhFpd6aJ6l7j7Jbakrz-65" target="TxhFpd6aJ6l7j7Jbakrz-25">
          <mxGeometry relative="1" as="geometry" />
        </mxCell>
        <mxCell id="TxhFpd6aJ6l7j7Jbakrz-71" value="&lt;u&gt;Category_Id&lt;/u&gt;" style="ellipse;whiteSpace=wrap;html=1;" vertex="1" parent="WIyWlLk6GJQsqaUBKTNV-1">
          <mxGeometry x="734" y="-250" width="120" height="80" as="geometry" />
        </mxCell>
        <mxCell id="TxhFpd6aJ6l7j7Jbakrz-72" value="&lt;u&gt;Book_Id&lt;/u&gt;" style="ellipse;whiteSpace=wrap;html=1;" vertex="1" parent="WIyWlLk6GJQsqaUBKTNV-1">
          <mxGeometry x="1044" y="-290" width="120" height="80" as="geometry" />
        </mxCell>
        <mxCell id="TxhFpd6aJ6l7j7Jbakrz-73" style="edgeStyle=orthogonalEdgeStyle;rounded=0;orthogonalLoop=1;jettySize=auto;html=1;exitX=1;exitY=0;exitDx=0;exitDy=0;entryX=0.029;entryY=0.652;entryDx=0;entryDy=0;entryPerimeter=0;" edge="1" parent="WIyWlLk6GJQsqaUBKTNV-1" source="TxhFpd6aJ6l7j7Jbakrz-63" target="TxhFpd6aJ6l7j7Jbakrz-72">
          <mxGeometry relative="1" as="geometry" />
        </mxCell>
        <mxCell id="TxhFpd6aJ6l7j7Jbakrz-75" value="1" style="text;html=1;align=center;verticalAlign=middle;whiteSpace=wrap;rounded=0;" vertex="1" parent="WIyWlLk6GJQsqaUBKTNV-1">
          <mxGeometry x="974" y="-30" width="60" height="30" as="geometry" />
        </mxCell>
        <mxCell id="TxhFpd6aJ6l7j7Jbakrz-76" value="1" style="text;html=1;align=center;verticalAlign=middle;whiteSpace=wrap;rounded=0;" vertex="1" parent="WIyWlLk6GJQsqaUBKTNV-1">
          <mxGeometry x="974" y="-420" width="60" height="30" as="geometry" />
        </mxCell>
        <mxCell id="TxhFpd6aJ6l7j7Jbakrz-77" value="M" style="text;html=1;align=center;verticalAlign=middle;whiteSpace=wrap;rounded=0;" vertex="1" parent="WIyWlLk6GJQsqaUBKTNV-1">
          <mxGeometry x="974" y="-285" width="60" height="30" as="geometry" />
        </mxCell>
        <mxCell id="TxhFpd6aJ6l7j7Jbakrz-78" value="M" style="text;html=1;align=center;verticalAlign=middle;whiteSpace=wrap;rounded=0;" vertex="1" parent="WIyWlLk6GJQsqaUBKTNV-1">
          <mxGeometry x="974" y="-170" width="60" height="30" as="geometry" />
        </mxCell>
      </root>
    </mxGraphModel>
  </diagram>
</mxfile>
